<svg preserveAspectRatio="none" width="100%" height="100%" overflow="visible" style="display: block;" viewBox="0 0 2035 1263" fill="none" xmlns="http://www.w3.org/2000/svg">
<path id="Union" opacity="0.5" d="M485.19 61.8145C548.178 80.422 598.162 126.154 620.09 185.13L860.708 832.824C901.134 823.007 942.056 812.178 982.735 800.217L1212.78 184.604C1234.71 126.048 1284.26 80.5272 1346.82 61.8145L1552.88 0.106154L1310.07 666.789C2198.88 183.453 1663.27 13.244 1663.27 13.244V13.1403C2286.27 33.2197 1937.9 394.122 1937.9 394.122C1729.7 622.485 1479.81 773.704 1234.71 873.703L1092.93 1263H737.897L653.746 1032.79C377.336 1076.3 181.429 1065.88 181.429 1065.88C-322.779 1025.33 383.837 508.258 384.798 507.555C38.8256 924.631 306.67 935.346 600.201 886.3L276.232 0L485.19 61.8145Z" fill="url(#paint0_linear_0_5)"/>
<defs>
<linearGradient id="paint0_linear_0_5" x1="360.491" y1="128.173" x2="852.868" y2="1535.56" gradientUnits="userSpaceOnUse">
<stop stop-color="#FFD500" stop-opacity="0"/>
<stop offset="1" stop-color="#FFD500"/>
</linearGradient>
</defs>
</svg>
