<svg width="16" height="16" viewBox="0 0 16 16" fill="none" xmlns="http://www.w3.org/2000/svg">
<g clip-path="url(#clip0_4723_16485)">
<path d="M8 16C12.4183 16 16 12.4183 16 8C16 3.58172 12.4183 0 8 0C3.58172 0 0 3.58172 0 8C0 12.4183 3.58172 16 8 16Z" fill="#F0F0F0"/>
<path d="M10.783 7.99976C10.783 8.69541 9.53715 10.4345 8.00037 10.4345C6.46359 10.4345 5.21777 8.69541 5.21777 7.99976C5.21777 6.46294 6.46359 5.21716 8.00037 5.21716C9.53715 5.21716 10.783 6.46294 10.783 7.99976Z" fill="#D80027"/>
<path d="M10.783 7.99969C10.783 9.53651 9.53715 10.7823 8.00037 10.7823C6.46359 10.7823 5.21777 9.53651 5.21777 7.99969" fill="#0052B4"/>
<path d="M11.689 9.72176L10.9512 10.4596L11.4431 10.9515L12.1809 10.2137L11.689 9.72176Z" fill="black"/>
<path d="M10.459 10.9513L9.72119 11.6891L10.2131 12.181L10.9509 11.4431L10.459 10.9513Z" fill="black"/>
<path d="M13.1646 11.1965L12.4268 11.9343L12.9187 12.4262L13.6565 11.6884L13.1646 11.1965Z" fill="black"/>
<path d="M11.9356 12.4273L11.1978 13.1651L11.6897 13.657L12.4275 12.9192L11.9356 12.4273Z" fill="black"/>
<path d="M12.4273 10.4597L11.6895 11.1976L12.1814 11.6895L12.9192 10.9516L12.4273 10.4597Z" fill="black"/>
<path d="M11.1973 11.6892L10.4595 12.4271L10.9514 12.919L11.6892 12.1811L11.1973 11.6892Z" fill="black"/>
<path d="M10.4597 3.5721L12.4272 5.53967L12.9191 5.04777L10.9516 3.0802L10.4597 3.5721Z" fill="black"/>
<path d="M9.72164 4.31075L10.4595 5.04858L10.9513 4.55671L10.2135 3.81887L9.72164 4.31075Z" fill="black"/>
<path d="M10.9516 5.54L11.6895 6.27783L12.1813 5.78596L11.4435 5.04812L10.9516 5.54Z" fill="black"/>
<path d="M11.1967 2.83486L11.9346 3.57269L12.4265 3.08079L11.6886 2.34296L11.1967 2.83486Z" fill="black"/>
<path d="M12.4272 4.06514L13.165 4.80298L13.6569 4.31108L12.9191 3.57324L12.4272 4.06514Z" fill="black"/>
<path d="M4.80204 13.1653L2.83447 11.1978L2.34257 11.6897L4.31015 13.6572L4.80204 13.1653Z" fill="black"/>
<path d="M5.54057 12.4266L4.80273 11.6888L4.31086 12.1807L5.04869 12.9185L5.54057 12.4266Z" fill="black"/>
<path d="M4.31059 11.1972L3.57275 10.4594L3.08086 10.9513L3.81869 11.6891L4.31059 11.1972Z" fill="black"/>
<path d="M6.27812 11.6891L4.31055 9.72156L3.81865 10.2135L5.78622 12.181L6.27812 11.6891Z" fill="black"/>
<path d="M2.83516 4.80314L4.80273 2.83557L4.31084 2.34367L2.34326 4.31124L2.83516 4.80314Z" fill="black"/>
<path d="M3.57247 5.5399L5.54004 3.57233L5.04814 3.08043L3.08057 5.048L3.57247 5.5399Z" fill="black"/>
<path d="M4.31075 6.27806L6.27832 4.31049L5.78644 3.81861L3.81887 5.78618L4.31075 6.27806Z" fill="black"/>
</g>
<defs>
<clipPath id="clip0_4723_16485">
<rect width="16" height="16" fill="white"/>
</clipPath>
</defs>
</svg>
