<svg width="26" height="32" viewBox="0 0 26 32" fill="none" xmlns="http://www.w3.org/2000/svg">
<path d="M25.8539 23.1766C25.3714 24.7663 24.6104 26.3559 23.571 27.9455C21.9749 30.438 20.3849 31.6843 18.8012 31.6843C18.1949 31.6843 17.3287 31.4808 16.2028 31.0739C15.1387 30.6669 14.2045 30.4635 13.4002 30.4635C12.6455 30.4635 11.767 30.6733 10.7647 31.0929C9.7625 31.5253 8.94586 31.7415 8.31483 31.7415C6.43409 31.7415 4.57192 30.0947 2.7283 26.801C0.909434 23.4818 0 20.2835 0 17.206C0 14.3066 0.699089 11.9285 2.09727 10.0718C3.49544 8.24058 5.25245 7.32496 7.36827 7.32496C8.25915 7.32496 9.35418 7.51572 10.6534 7.89723C11.9402 8.27873 12.7939 8.46949 13.2146 8.46949C13.7714 8.46949 14.6561 8.2533 15.8687 7.82092C17.1308 7.38855 18.2011 7.17236 19.0796 7.17236C20.552 7.17236 21.8697 7.58566 23.0328 8.41226C23.6762 8.87007 24.3196 9.50592 24.963 10.3198C23.9856 11.1718 23.2803 11.9221 22.8472 12.5707C22.043 13.7661 21.6408 15.0823 21.6408 16.5193C21.6408 18.0962 22.0677 19.5142 22.9215 20.7731C23.7752 22.0321 24.7527 22.8333 25.8539 23.1766ZM18.8754 0.801168C18.8754 1.5769 18.696 2.44165 18.3372 3.39543C17.966 4.3492 17.3906 5.22667 16.6111 6.02783C15.9429 6.71455 15.2748 7.17236 14.6066 7.40127C14.1488 7.54115 13.5054 7.64925 12.6764 7.72555C12.7135 5.83072 13.1961 4.19659 14.1241 2.82316C15.0397 1.46245 16.5863 0.521395 18.764 0C18.7764 0.0381509 18.7919 0.108094 18.8104 0.20983C18.829 0.311565 18.8445 0.381508 18.8568 0.419659C18.8568 0.470527 18.8599 0.534112 18.8661 0.610414C18.8723 0.686715 18.8754 0.7503 18.8754 0.801168Z" fill="white"/>
</svg>
