<svg width="44" height="44" viewBox="0 0 44 44" fill="none" xmlns="http://www.w3.org/2000/svg">
<g clip-path="url(#clip0_29_1017)">
<path d="M43.123 11.34C42.8742 10.4039 42.384 9.5496 41.7013 8.86254C41.0186 8.17547 40.1674 7.67975 39.233 7.425C35.793 6.5 22.043 6.5 22.043 6.5C22.043 6.5 8.29297 6.5 4.85297 7.425C3.91851 7.67975 3.06734 8.17547 2.38466 8.86254C1.70198 9.5496 1.21173 10.4039 0.962969 11.34C0.0429689 14.795 0.0429688 22 0.0429688 22C0.0429688 22 0.0429689 29.205 0.962969 32.66C1.21173 33.5961 1.70198 34.4504 2.38466 35.1375C3.06734 35.8245 3.91851 36.3202 4.85297 36.575C8.29297 37.5 22.043 37.5 22.043 37.5C22.043 37.5 35.793 37.5 39.233 36.575C40.1674 36.3202 41.0186 35.8245 41.7013 35.1375C42.384 34.4504 42.8742 33.5961 43.123 32.66C44.043 29.205 44.043 22 44.043 22C44.043 22 44.043 14.795 43.123 11.34Z" fill="#FF0302"/>
<path d="M17.543 28.5425V15.4575L29.043 22L17.543 28.5425Z" fill="#FEFEFE"/>
</g>
<defs>
<clipPath id="clip0_29_1017">
<rect width="44" height="44" fill="white"/>
</clipPath>
</defs>
</svg>
