<svg width="44" height="44" viewBox="0 0 44 44" fill="none" xmlns="http://www.w3.org/2000/svg">
<g clip-path="url(#clip0_29_1041)">
<path d="M40.7519 0H3.24806C2.38662 0 1.56046 0.342205 0.951334 0.951334C0.342205 1.56046 0 2.38662 0 3.24806V40.7519C0 41.6134 0.342205 42.4395 0.951334 43.0487C1.56046 43.6578 2.38662 44 3.24806 44H40.7519C41.6134 44 42.4395 43.6578 43.0487 43.0487C43.6578 42.4395 44 41.6134 44 40.7519V3.24806C44 2.38662 43.6578 1.56046 43.0487 0.951334C42.4395 0.342205 41.6134 0 40.7519 0ZM13.1144 37.4825H6.49917V16.4694H13.1144V37.4825ZM9.80222 13.5575C9.05183 13.5533 8.31951 13.3269 7.69768 12.9068C7.07585 12.4868 6.59237 11.892 6.30828 11.1974C6.02418 10.5029 5.95219 9.73975 6.10139 9.00433C6.25059 8.26892 6.6143 7.59417 7.14662 7.06527C7.67893 6.53636 8.35599 6.17699 9.09236 6.03251C9.82872 5.88803 10.5914 5.96492 11.2841 6.25347C11.9768 6.54203 12.5685 7.02931 12.9845 7.65382C13.4005 8.27834 13.6223 9.0121 13.6217 9.7625C13.6287 10.2649 13.5346 10.7636 13.3449 11.2288C13.1551 11.694 12.8736 12.1163 12.5172 12.4705C12.1608 12.8246 11.7367 13.1034 11.2703 13.2901C10.8038 13.4769 10.3046 13.5678 9.80222 13.5575ZM37.4978 37.5008H30.8856V26.0211C30.8856 22.6356 29.4464 21.5906 27.5886 21.5906C25.6269 21.5906 23.7019 23.0694 23.7019 26.1067V37.5008H17.0867V16.4847H23.4483V19.3967H23.5339C24.1725 18.1042 26.4092 15.895 29.8222 15.895C33.5133 15.895 37.5008 18.0858 37.5008 24.5025L37.4978 37.5008Z" fill="#0A66C2"/>
</g>
<defs>
<clipPath id="clip0_29_1041">
<rect width="44" height="44" fill="white"/>
</clipPath>
</defs>
</svg>
