<svg width="44" height="44" viewBox="0 0 44 44" fill="none" xmlns="http://www.w3.org/2000/svg">
<g clip-path="url(#clip0_29_1006)">
<path d="M44 22C44 9.84977 34.1502 2.67029e-05 22 2.67029e-05C9.84975 2.67029e-05 0 9.84977 0 22C0 32.3176 7.10291 40.9747 16.6853 43.3521V28.7229H12.1487V22H16.6853V19.1031C16.6853 11.6151 20.074 8.14434 27.4255 8.14434C28.8193 8.14434 31.2242 8.41758 32.2081 8.6909V14.7852C31.6888 14.7306 30.787 14.7032 29.6665 14.7032C26.0591 14.7032 24.6652 16.0697 24.6652 19.6224V22H31.8512L30.6168 28.7229H24.6652V43.8389C35.5584 42.5232 44 33.248 44 22Z" fill="#0866FF"/>
<path d="M30.6165 28.7229L31.851 22H24.665V19.6223C24.665 16.0696 26.0588 14.7032 29.6661 14.7032C30.7866 14.7032 31.6885 14.7305 32.2078 14.7852V8.69091C31.2239 8.41758 28.819 8.14425 27.4252 8.14425C20.0738 8.14425 16.685 11.6151 16.685 19.1031V22H12.1484V28.7229H16.685V43.3521C18.3872 43.7744 20.167 44 21.9997 44C22.902 44 23.7912 43.9444 24.665 43.8389V28.7229H30.6165Z" fill="white"/>
</g>
<defs>
<clipPath id="clip0_29_1006">
<rect width="44" height="44" fill="white"/>
</clipPath>
</defs>
</svg>
