<svg width="60" height="60" viewBox="0 0 60 60" fill="none" xmlns="http://www.w3.org/2000/svg">
<path d="M5 19.3333C5 24.488 13.9543 28.6667 25 28.6667C26.7265 28.6667 28.4019 28.5646 30 28.3726M5 19.3333C5 14.1787 13.9543 10 25 10C36.0457 10 45 14.1787 45 19.3333C45 20.1923 44.7513 21.0243 44.2857 21.8142M5 19.3333V30M5 30C5 35.1547 13.9543 39.3333 25 39.3333C25.9593 39.3333 26.9029 39.3018 27.8262 39.2409M5 30V40.6667C5 45.8213 13.9543 50 25 50C28.7256 50 32.2133 49.5246 35.1997 48.6967" stroke="#FF7A21" stroke-width="4" stroke-linecap="round"/>
<path d="M27.8262 39.2409L25.8737 39.674L27.8262 39.2409ZM43.6518 22.709L43.9988 20.7394L43.6518 22.709ZM55 36.25H53C53 42.7393 47.7393 48 41.25 48V50V52C49.9485 52 57 44.9485 57 36.25H55ZM27.5 36.25H29.5C29.5 29.7607 34.7607 24.5 41.25 24.5V22.5V20.5C32.5515 20.5 25.5 27.5515 25.5 36.25H27.5ZM41.25 50V48C35.6409 48 30.9455 44.0677 29.7787 38.8078L27.8262 39.2409L25.8737 39.674C27.4378 46.7255 33.7256 52 41.25 52V50ZM27.8262 39.2409L29.7787 38.8078C29.5965 37.9862 29.5 37.1305 29.5 36.25H27.5H25.5C25.5 37.4238 25.6287 38.5698 25.8737 39.674L27.8262 39.2409ZM41.25 22.5V24.5C41.9525 24.5 42.6389 24.5614 43.3048 24.6787L43.6518 22.709L43.9988 20.7394C43.1048 20.5819 42.1861 20.5 41.25 20.5V22.5ZM43.6518 22.709L43.3048 24.6787C48.8142 25.6493 53 30.4629 53 36.25H55H57C57 28.4879 51.387 22.0409 43.9988 20.7394L43.6518 22.709Z" fill="#1A2530"/>
</svg>
