<svg width="60" height="60" viewBox="0 0 60 60" fill="none" xmlns="http://www.w3.org/2000/svg">
<path opacity="0.4" d="M27.0925 2.65369C32.5734 2.07065 38.1033 3.14954 42.9641 5.74939C47.8247 8.34927 51.7931 12.3504 54.3532 17.2338C56.9132 22.1172 57.947 27.6584 57.322 33.1371C57.1655 34.5087 55.9275 35.4954 54.5559 35.3392C53.1841 35.1827 52.1972 33.9425 52.3537 32.5707C52.8653 28.0867 52.0195 23.5519 49.9245 19.5555C47.8295 15.5594 44.5823 12.2856 40.6057 10.1586C36.629 8.03162 32.1059 7.14994 27.6223 7.62683C23.1384 8.10381 18.9004 9.91795 15.4592 12.8344C12.0183 15.7507 9.53156 19.6341 8.32297 23.9818C7.11443 28.3296 7.23985 32.9408 8.68186 37.2167C10.1241 41.4928 12.8173 45.2382 16.4114 47.9637C20.0053 50.689 24.3353 52.2692 28.8381 52.5023C30.2167 52.574 31.2752 53.7506 31.2038 55.1293C31.1323 56.5079 29.958 57.5686 28.5793 57.4974C23.0747 57.2124 17.7816 55.2768 13.3889 51.9457C8.99678 48.6146 5.70527 44.0405 3.94309 38.8158C2.18086 33.591 2.02947 27.9566 3.50608 22.6439C4.9829 17.331 8.02097 12.5828 12.2268 9.01843C16.4324 5.45433 21.6118 3.2368 27.0925 2.65369Z" fill="black"/>
<path d="M53.374 43.103C54.4223 42.2045 55.9984 42.3257 56.897 43.374C57.7955 44.4223 57.6743 45.9984 56.626 46.897L44.9609 56.897C44.0247 57.6994 42.6428 57.6994 41.7065 56.897L35.874 51.897C34.8257 50.9984 34.7045 49.4223 35.603 48.374C36.5016 47.3257 38.0777 47.2045 39.126 48.103L43.3325 51.7065L53.374 43.103ZM27.5 17.5C27.5 16.1193 28.6193 15 30 15C31.3807 15 32.5 16.1193 32.5 17.5V28.9648L39.2676 35.7324C40.2439 36.7087 40.2439 38.2913 39.2676 39.2676C38.2913 40.2439 36.7087 40.2439 35.7324 39.2676L28.2324 31.7676C27.7636 31.2987 27.5 30.663 27.5 30V17.5Z" fill="black"/>
</svg>
