<svg width="60" height="60" viewBox="0 0 60 60" fill="none" xmlns="http://www.w3.org/2000/svg">
<path d="M20.4013 10.0281L20.7141 12.0035V12.0035L20.4013 10.0281ZM22.665 9.09041L23.8406 10.7084V10.7084L22.665 9.09041ZM10.8499 15.2122L8.87451 14.8994L10.8499 15.2122ZM15.2122 10.8499L14.8994 8.87451V8.87451L15.2122 10.8499ZM9.09041 22.665L7.47239 21.4895L7.47239 21.4895L9.09041 22.665ZM10.0281 20.4013L12.0035 20.7141V20.7141L10.0281 20.4013ZM6.00228 33.0846L4.38426 34.2602H4.38426L6.00228 33.0846ZM6.00228 26.9154L7.6203 28.091H7.6203L6.00228 26.9154ZM10.0281 39.5987L12.0035 39.2859V39.2859L10.0281 39.5987ZM9.09041 37.335L10.7084 36.1594V36.1594L9.09041 37.335ZM15.2122 49.1501L15.5251 47.1747V47.1747L15.2122 49.1501ZM10.8499 44.7878L8.87451 45.1006V45.1006L10.8499 44.7878ZM22.665 50.9096L23.8406 49.2916V49.2916L22.665 50.9096ZM20.4013 49.9719L20.0884 51.9473H20.0884L20.4013 49.9719ZM33.0846 53.9977L34.2602 55.6157H34.2602L33.0846 53.9977ZM26.9154 53.9977L25.7398 55.6157V55.6157L26.9154 53.9977ZM39.5987 49.9719L39.9116 51.9473V51.9473L39.5987 49.9719ZM37.335 50.9096L36.1594 49.2916V49.2916L37.335 50.9096ZM49.1501 44.7878L47.1747 44.475V44.475L49.1501 44.7878ZM44.7878 49.1501L44.475 47.1747V47.1747L44.7878 49.1501ZM50.9096 37.335L49.2916 36.1594V36.1594L50.9096 37.335ZM49.9719 39.5987L51.9473 39.9116V39.9116L49.9719 39.5987ZM53.9977 26.9154L55.6157 25.7398V25.7398L53.9977 26.9154ZM53.9977 33.0846L55.6157 34.2602V34.2602L53.9977 33.0846ZM49.9719 20.4013L51.9473 20.0884V20.0884L49.9719 20.4013ZM50.9096 22.665L49.2916 23.8406V23.8406L50.9096 22.665ZM44.7878 10.8499L45.1006 8.87451V8.87451L44.7878 10.8499ZM49.1501 15.2122L47.1747 15.525V15.525L49.1501 15.2122ZM37.335 9.09041L36.1594 10.7084V10.7084L37.335 9.09041ZM39.5987 10.0281L39.2859 12.0035V12.0035L39.5987 10.0281ZM33.0846 6.00228L34.2602 4.38426V4.38426L33.0846 6.00228ZM26.9154 6.00228L25.7398 4.38426V4.38426L26.9154 6.00228ZM33.0846 6.00228L31.909 7.6203L36.1594 10.7084L37.335 9.09041L38.5105 7.47239L34.2602 4.38426L33.0846 6.00228ZM39.5987 10.0281L39.2859 12.0035L44.475 12.8253L44.7878 10.8499L45.1006 8.87451L39.9116 8.05271L39.5987 10.0281ZM49.1501 15.2122L47.1747 15.525L47.9965 20.7141L49.9719 20.4013L51.9473 20.0884L51.1255 14.8994L49.1501 15.2122ZM50.9096 22.665L49.2916 23.8406L52.3797 28.091L53.9977 26.9154L55.6157 25.7398L52.5276 21.4895L50.9096 22.665ZM53.9977 33.0846L52.3797 31.909L49.2916 36.1594L50.9096 37.335L52.5276 38.5106L55.6157 34.2602L53.9977 33.0846ZM49.9719 39.5987L47.9965 39.2859L47.1747 44.475L49.1501 44.7878L51.1255 45.1006L51.9473 39.9116L49.9719 39.5987ZM44.7878 49.1501L44.475 47.1747L39.2859 47.9965L39.5987 49.9719L39.9116 51.9473L45.1006 51.1255L44.7878 49.1501ZM37.335 50.9096L36.1594 49.2916L31.909 52.3797L33.0846 53.9977L34.2602 55.6157L38.5106 52.5276L37.335 50.9096ZM26.9154 53.9977L28.091 52.3797L23.8406 49.2916L22.665 50.9096L21.4895 52.5276L25.7398 55.6157L26.9154 53.9977ZM20.4013 49.9719L20.7141 47.9965L15.5251 47.1747L15.2122 49.1501L14.8994 51.1255L20.0884 51.9473L20.4013 49.9719ZM10.8499 44.7878L12.8253 44.475L12.0035 39.2859L10.0281 39.5987L8.05271 39.9116L8.87451 45.1006L10.8499 44.7878ZM9.09041 37.335L10.7084 36.1594L7.6203 31.909L6.00228 33.0846L4.38426 34.2602L7.47239 38.5105L9.09041 37.335ZM6.00228 26.9154L7.6203 28.091L10.7084 23.8406L9.09041 22.665L7.47239 21.4895L4.38426 25.7398L6.00228 26.9154ZM10.0281 20.4013L12.0035 20.7141L12.8253 15.5251L10.8499 15.2122L8.87451 14.8994L8.05271 20.0884L10.0281 20.4013ZM15.2122 10.8499L15.525 12.8253L20.7141 12.0035L20.4013 10.0281L20.0884 8.05271L14.8994 8.87451L15.2122 10.8499ZM22.665 9.09041L23.8406 10.7084L28.091 7.6203L26.9154 6.00228L25.7398 4.38426L21.4895 7.47239L22.665 9.09041ZM20.4013 10.0281L20.7141 12.0035C21.8439 11.8246 22.9153 11.3808 23.8406 10.7084L22.665 9.09041L21.4895 7.47239C21.0748 7.77367 20.5947 7.97253 20.0884 8.05271L20.4013 10.0281ZM10.8499 15.2122L12.8253 15.5251C13.0454 14.1353 14.1353 13.0454 15.525 12.8253L15.2122 10.8499L14.8994 8.87451C11.798 9.36567 9.36567 11.798 8.87451 14.8994L10.8499 15.2122ZM9.09041 22.665L10.7084 23.8406C11.3808 22.9153 11.8245 21.8439 12.0035 20.7141L10.0281 20.4013L8.05271 20.0884C7.97253 20.5947 7.77367 21.0748 7.47239 21.4895L9.09041 22.665ZM6.00228 33.0846L7.6203 31.909C6.79323 30.7707 6.79323 29.2293 7.6203 28.091L6.00228 26.9154L4.38426 25.7398C2.53858 28.2801 2.53858 31.7199 4.38426 34.2602L6.00228 33.0846ZM10.0281 39.5987L12.0035 39.2859C11.8246 38.1561 11.3808 37.0847 10.7084 36.1594L9.09041 37.335L7.47239 38.5105C7.77367 38.9252 7.97253 39.4053 8.05271 39.9116L10.0281 39.5987ZM15.2122 49.1501L15.5251 47.1747C14.1353 46.9546 13.0454 45.8647 12.8253 44.475L10.8499 44.7878L8.87451 45.1006C9.36567 48.202 11.798 50.6343 14.8994 51.1255L15.2122 49.1501ZM22.665 50.9096L23.8406 49.2916C22.9153 48.6192 21.8439 48.1755 20.7141 47.9965L20.4013 49.9719L20.0884 51.9473C20.5947 52.0275 21.0748 52.2263 21.4895 52.5276L22.665 50.9096ZM33.0846 53.9977L31.909 52.3797C30.7707 53.2068 29.2293 53.2068 28.091 52.3797L26.9154 53.9977L25.7398 55.6157C28.2801 57.4614 31.7199 57.4614 34.2602 55.6157L33.0846 53.9977ZM39.5987 49.9719L39.2859 47.9965C38.1561 48.1755 37.0847 48.6192 36.1594 49.2916L37.335 50.9096L38.5105 52.5276C38.9252 52.2263 39.4053 52.0275 39.9116 51.9473L39.5987 49.9719ZM49.1501 44.7878L47.1747 44.475C46.9546 45.8647 45.8647 46.9546 44.475 47.1747L44.7878 49.1501L45.1006 51.1255C48.202 50.6343 50.6343 48.202 51.1255 45.1006L49.1501 44.7878ZM50.9096 37.335L49.2916 36.1594C48.6192 37.0847 48.1755 38.1561 47.9965 39.2859L49.9719 39.5987L51.9473 39.9116C52.0275 39.4053 52.2263 38.9252 52.5276 38.5105L50.9096 37.335ZM53.9977 26.9154L52.3797 28.091C53.2068 29.2293 53.2068 30.7707 52.3797 31.909L53.9977 33.0846L55.6157 34.2602C57.4614 31.7199 57.4614 28.2801 55.6157 25.7398L53.9977 26.9154ZM49.9719 20.4013L47.9965 20.7141C48.1755 21.8439 48.6192 22.9153 49.2916 23.8406L50.9096 22.665L52.5276 21.4895C52.2263 21.0748 52.0275 20.5947 51.9473 20.0884L49.9719 20.4013ZM44.7878 10.8499L44.475 12.8253C45.8647 13.0454 46.9546 14.1353 47.1747 15.525L49.1501 15.2122L51.1255 14.8994C50.6343 11.798 48.202 9.36567 45.1006 8.87451L44.7878 10.8499ZM37.335 9.09041L36.1594 10.7084C37.0847 11.3808 38.1561 11.8245 39.2859 12.0035L39.5987 10.0281L39.9116 8.05271C39.4053 7.97253 38.9252 7.77367 38.5105 7.47239L37.335 9.09041ZM33.0846 6.00228L34.2602 4.38426C31.7199 2.53858 28.2801 2.53858 25.7398 4.38426L26.9154 6.00228L28.091 7.6203C29.2293 6.79323 30.7707 6.79323 31.909 7.6203L33.0846 6.00228Z" fill="#FF7A21"/>
<path d="M23.9142 28.5858C23.1332 27.8047 21.8668 27.8047 21.0858 28.5858C20.3047 29.3668 20.3047 30.6332 21.0858 31.4142L22.5 30L23.9142 28.5858ZM27.5 35L26.0858 36.4142C26.8668 37.1953 28.1332 37.1953 28.9142 36.4142L27.5 35ZM38.9142 26.4142C39.6953 25.6332 39.6953 24.3668 38.9142 23.5858C38.1332 22.8047 36.8668 22.8047 36.0858 23.5858L37.5 25L38.9142 26.4142ZM22.5 30L21.0858 31.4142L26.0858 36.4142L27.5 35L28.9142 33.5858L23.9142 28.5858L22.5 30ZM27.5 35L28.9142 36.4142L38.9142 26.4142L37.5 25L36.0858 23.5858L26.0858 33.5858L27.5 35Z" fill="#1A2530"/>
</svg>
