<svg width="60" height="60" viewBox="0 0 60 60" fill="none" xmlns="http://www.w3.org/2000/svg">
<path d="M7.5 11C7.5 10.0717 7.85514 9.1815 8.48728 8.52513C9.11943 7.86875 9.9768 7.5 10.8708 7.5H49.1292C50.0232 7.5 50.8806 7.86875 51.5127 8.52513C52.1449 9.1815 52.5 10.0717 52.5 11V39C52.5 39.9283 52.1449 40.8185 51.5127 41.4749C50.8806 42.1312 50.0232 42.5 49.1292 42.5H10.8708C9.9768 42.5 9.11943 42.1312 8.48728 41.4749C7.85514 40.8185 7.5 39.9283 7.5 39V11Z" stroke="#FF7A21" stroke-width="4" stroke-linecap="round" stroke-linejoin="round"/>
<path d="M5 52.5L55 52.5" stroke="#1A2530" stroke-width="4" stroke-linecap="round" stroke-linejoin="round"/>
</svg>
