<svg width="60" height="60" viewBox="0 0 60 60" fill="none" xmlns="http://www.w3.org/2000/svg">
<path d="M12.5 15H30H47.5" stroke="#1A2530" stroke-width="4" stroke-linejoin="round"/>
<path d="M30 30C39.665 30 47.5 22.165 47.5 12.5V7.5C47.5 6.11929 46.3807 5 45 5H15C13.6193 5 12.5 6.11929 12.5 7.5V12.5C12.5 22.165 20.335 30 30 30ZM30 30C39.665 30 47.5 37.835 47.5 47.5V52.5C47.5 53.8807 46.3807 55 45 55H15C13.6193 55 12.5 53.8807 12.5 52.5V47.5C12.5 37.835 20.335 30 30 30Z" stroke="#FF7A21" stroke-width="4" stroke-linecap="round"/>
</svg>
