<svg width="60" height="60" viewBox="0 0 60 60" fill="none" xmlns="http://www.w3.org/2000/svg">
<path fill-rule="evenodd" clip-rule="evenodd" d="M53.5848 8.58712C54.3653 7.80577 55.6314 7.80478 56.4129 8.58516C57.194 9.36575 57.1952 10.6319 56.4149 11.4133L31.4149 36.4387C31.04 36.8139 30.5311 37.0253 30.0008 37.0256C29.4704 37.0257 28.9609 36.8146 28.5858 36.4397L21.0858 28.9397C20.3047 28.1586 20.3048 26.8916 21.0858 26.1106C21.8667 25.3299 23.1329 25.3299 23.9139 26.1106L29.9988 32.1955L53.5848 8.58712Z" fill="black"/>
<path d="M40.9103 7.5C37.6134 5.89835 33.9116 5 30 5C16.1929 5 5 16.1929 5 30C5 43.8071 16.1929 55 30 55C43.8071 55 55 43.8071 55 30C55 28.9847 54.9395 27.9836 54.8218 27" stroke="#FF7A21" stroke-width="4" stroke-linecap="round" stroke-linejoin="round"/>
</svg>
