<svg width="60" height="60" viewBox="0 0 60 60" fill="none" xmlns="http://www.w3.org/2000/svg">
<path d="M10 7.5H50C51.3261 7.5 52.5979 8.02678 53.5355 8.96447C54.4732 9.90215 55 11.1739 55 12.5V27.5C55 34.1304 52.3661 40.4893 47.6777 45.1777C42.9893 49.8661 36.6304 52.5 30 52.5C26.717 52.5 23.4661 51.8534 20.4329 50.597C17.3998 49.3406 14.6438 47.4991 12.3223 45.1777C7.63392 40.4893 5 34.1304 5 27.5V12.5C5 11.1739 5.52678 9.90215 6.46447 8.96447C7.40215 8.02678 8.67392 7.5 10 7.5Z" stroke="#FF7A21" stroke-width="4" stroke-linecap="round" stroke-linejoin="round"/>
<path d="M20 25L30 35L40 25" stroke="#1A2530" stroke-width="4" stroke-linecap="round" stroke-linejoin="round"/>
</svg>
