<svg width="60" height="60" viewBox="0 0 60 60" fill="none" xmlns="http://www.w3.org/2000/svg">
<path d="M37.5 20C38.2875 20 39.0628 20.052 39.8228 20.1528V20C38.6097 11.5193 31.3162 5 22.5 5C12.835 5 5 12.835 5 22.5C5 31.37 11.5992 38.6988 20.1557 39.8443" stroke="#1A2530" stroke-width="4"/>
<path d="M39.8228 20V20.1528M39.8228 20.1528C39.0628 20.052 38.2875 20 37.5 20C27.835 20 20 27.835 20 37.5C20 38.2949 20.053 39.0775 20.1557 39.8443C21.3012 48.4008 28.63 55 37.5 55C47.165 55 55 47.165 55 37.5C55 28.6225 48.3897 21.2889 39.8228 20.1528Z" stroke="#FF7A21" stroke-width="4" stroke-linecap="round"/>
</svg>
