<svg width="60" height="60" viewBox="0 0 60 60" fill="none" xmlns="http://www.w3.org/2000/svg">
<path d="M55 30C55 43.8071 43.8071 55 30 55C16.1929 55 5 43.8071 5 30C5 16.1929 16.1929 5 30 5C43.8071 5 55 16.1929 55 30Z" stroke="#FF7A21" stroke-width="4" stroke-linecap="round"/>
<path d="M37.5 22C38.6046 22 39.5 21.1046 39.5 20C39.5 18.8954 38.6046 18 37.5 18V20V22ZM22.5 25H20.5H22.5ZM27.6042 30V32V30ZM32.3958 30L32.3958 28H32.3958V30ZM32.3958 40L32.3958 42V42L32.3958 40ZM22.5 38C21.3954 38 20.5 38.8954 20.5 40C20.5 41.1046 21.3954 42 22.5 42V40V38ZM28 20V22H32V20H30H28ZM32 15C32 13.8954 31.1046 13 30 13C28.8954 13 28 13.8954 28 15H30H32ZM32 40V38H28V40H30H32ZM28 45C28 46.1046 28.8954 47 30 47C31.1046 47 32 46.1046 32 45H30H28ZM27.6042 20V18C25.7332 18 23.9307 18.7277 22.5954 20.0357L23.995 21.4645L25.3945 22.8932C25.9737 22.3259 26.7677 22 27.6042 22V20ZM23.995 21.4645L22.5954 20.0357C21.2587 21.3452 20.5 23.13 20.5 25H22.5H24.5C24.5 24.2178 24.8168 23.4591 25.3945 22.8932L23.995 21.4645ZM22.5 25H20.5C20.5 26.87 21.2587 28.6548 22.5954 29.9642L23.995 28.5355L25.3945 27.1068C24.8168 26.5409 24.5 25.7822 24.5 25H22.5ZM23.995 28.5355L22.5954 29.9642C23.9307 31.2723 25.7332 32 27.6042 32V30V28C26.7677 28 25.9737 27.6741 25.3945 27.1068L23.995 28.5355ZM27.6042 30V32H32.3958V30V28H27.6042V30ZM32.3958 30V32C33.2323 32 34.0263 32.3259 34.6055 32.8932L36.005 31.4645L37.4046 30.0358C36.0693 28.7277 34.2668 28 32.3958 28L32.3958 30ZM36.005 31.4645L34.6055 32.8932C35.1832 33.4591 35.5 34.2178 35.5 35H37.5H39.5C39.5 33.13 38.7413 31.3452 37.4046 30.0358L36.005 31.4645ZM37.5 35H35.5C35.5 35.7822 35.1832 36.5409 34.6055 37.1068L36.005 38.5355L37.4046 39.9643C38.7413 38.6548 39.5 36.87 39.5 35H37.5ZM36.005 38.5355L34.6055 37.1068C34.0263 37.6741 33.2323 38 32.3958 38V40L32.3958 42C34.2668 42 36.0693 41.2723 37.4046 39.9643L36.005 38.5355ZM32.3958 40V38H22.5V40V42H32.3958V40ZM30 20H32V15H30H28V20H30ZM30 40H28V45H30H32V40H30ZM37.5 20V18H27.6042V20V22H37.5V20Z" fill="#1A2530"/>
</svg>
