<svg width="60" height="60" viewBox="0 0 60 60" fill="none" xmlns="http://www.w3.org/2000/svg">
<path d="M25.0749 22.4002C20.8346 21.7937 17.5 18.1581 17.5 13.75C17.5 8.91751 21.4175 5 26.25 5C30.4417 5 33.945 7.94748 34.8004 11.8829C34.85 12.1114 34.8907 12.3431 34.9222 12.5778M34.9222 12.5778C34.5387 12.5265 34.1475 12.5 33.75 12.5C28.9175 12.5 25 16.4175 25 21.25C25 26.0825 28.9175 30 33.75 30C38.5825 30 42.5 26.0825 42.5 21.25C42.5 16.815 39.2004 13.1506 34.9222 12.5778Z" stroke="#1A2530" stroke-width="4"/>
<path d="M12.5 55H7.5C6.11929 55 5 53.9125 5 52.571L5 39.929C5 38.5875 6.11929 37.5 7.5 37.5H12.5C13.8807 37.5 15 38.5875 15 39.929V52.571C15 53.9125 13.8807 55 12.5 55ZM12.5 55H37.7003C39.1599 55 40.5467 54.3803 41.4966 53.3035L54.0073 39.122C54.6479 38.3958 55 37.471 55 36.5146C55 32.8151 50.2805 31.0921 47.7732 33.8762L37.5 45M37.5 45V42.0743C37.5 39.3912 35.2614 37.5 32.5 37.5H20C17.2386 37.5 15 39.675 15 42.3581V44.7871M37.5 45H27.5" stroke="#FF7A21" stroke-width="4" stroke-linecap="round"/>
</svg>
