<svg width="60" height="60" viewBox="0 0 60 60" fill="none" xmlns="http://www.w3.org/2000/svg">
<path d="M40.8646 9.49632C41.4975 8.86341 42.2489 8.36135 43.0758 8.01883C43.9028 7.6763 44.7891 7.5 45.6842 7.5C46.5792 7.5 47.4655 7.6763 48.2925 8.01883C49.1194 8.36135 49.8708 8.86341 50.5037 9.49632C51.1366 10.1292 51.6386 10.8806 51.9812 11.7075C52.3237 12.5345 52.5 13.4208 52.5 14.3158C52.5 15.2109 52.3237 16.0972 51.9812 16.9242C51.6386 17.7511 51.1366 18.5025 50.5037 19.1354L17.1701 52.5006H7.5L7.5 42.8304L40.8646 9.49632Z" stroke="#FF7A21" stroke-width="4" stroke-linecap="round" stroke-linejoin="round"/>
<path d="M45 37.5L45.3502 38.4463C46.4137 41.3203 48.6797 43.5863 51.5537 44.6498L52.5 45L51.5537 45.3502C48.6797 46.4137 46.4137 48.6797 45.3502 51.5537L45 52.5L44.6498 51.5537C43.5863 48.6797 41.3203 46.4137 38.4463 45.3502L37.5 45L38.4463 44.6498C41.3203 43.5863 43.5863 41.3203 44.6498 38.4463L45 37.5Z" stroke="#1A2530" stroke-width="4" stroke-linecap="round" stroke-linejoin="round"/>
</svg>
