<svg width="60" height="60" viewBox="0 0 60 60" fill="none" xmlns="http://www.w3.org/2000/svg">
<path d="M17.5 27.5V17.5C17.5 14.1848 18.817 11.0054 21.1612 8.66117C23.5054 6.31696 26.6848 5 30 5C33.3152 5 36.4946 6.31696 38.8388 8.66117C41.183 11.0054 42.5 14.1848 42.5 17.5V27.5" stroke="#1A2530" stroke-width="4" stroke-linecap="round" stroke-linejoin="round"/>
<path d="M47.5 25.5C51.366 25.5 54.5 28.634 54.5 32.5V50C54.5 53.866 51.366 57 47.5 57H12.5C8.63401 57 5.5 53.866 5.5 50V32.5C5.5 28.634 8.63401 25.5 12.5 25.5H47.5ZM12.5 29.5C10.8431 29.5 9.5 30.8431 9.5 32.5V50C9.5 51.6569 10.8431 53 12.5 53H47.5C49.1569 53 50.5 51.6569 50.5 50V32.5C50.5 30.8431 49.1569 29.5 47.5 29.5H12.5Z" fill="#FF7A21"/>
</svg>
